<?xml version="1.0" encoding="UTF-8" standalone="no"?>
<!DOCTYPE svg PUBLIC "-//W3C//DTD SVG 1.1//EN" "http://www.w3.org/Graphics/SVG/1.1/DTD/svg11.dtd">
<svg xmlns="http://www.w3.org/2000/svg" version="1.1" viewBox="0.00 0.00 1931.00 1086.00">
<path fill="#f77124" d="
  M 975.96 769.91
  Q 976.24 772.41 975.90 774.82
  Q 975.40 778.41 975.36 779.71
  Q 975.12 786.59 975.27 793.51
  C 975.30 794.86 974.70 795.98 974.69 797.18
  Q 974.44 822.58 974.46 847.97
  C 974.47 849.37 973.85 850.88 973.84 852.00
  Q 973.71 865.14 973.78 878.83
  A 0.77 0.76 2.4 0 1 972.95 879.59
  Q 903.97 873.41 835.80 861.16
  Q 835.32 861.08 835.44 860.60
  Q 840.08 840.97 846.76 822.03
  Q 850.89 810.31 850.93 810.20
  Q 862.06 778.03 875.81 743.76
  Q 882.77 726.40 890.15 711.58
  Q 890.38 711.12 890.87 711.26
  Q 907.22 715.91 924.00 718.21
  Q 949.61 721.74 975.45 722.74
  Q 975.78 722.76 976.02 722.89
  Q 976.19 722.99 976.35 723.11
  Q 976.54 723.25 976.79 723.25
  L 990.00 723.25
  Q 990.58 723.25 990.16 723.66
  L 989.76 724.05
  Q 989.45 724.36 989.44 724.80
  L 988.65 768.80
  Q 988.65 769.25 988.20 769.25
  L 976.55 769.25
  Q 975.89 769.25 975.96 769.91
  Z"
/>
<path fill="#f77124" d="
  M 818.87 939.23
  Q 817.74 938.91 817.41 938.87
  Q 815.43 938.62 816.21 936.78
  Q 817.46 933.80 818.28 930.64
  Q 826.25 899.68 833.51 868.55
  Q 833.62 868.05 834.06 867.78
  Q 835.54 866.88 837.40 867.21
  Q 904.75 879.27 973.21 885.40
  A 0.65 0.64 -87.6 0 1 973.80 886.05
  Q 973.72 899.13 973.80 912.25
  C 973.81 913.74 974.41 915.28 974.43 916.78
  Q 974.61 935.51 974.48 954.24
  Q 974.48 954.78 973.95 954.69
  Q 971.39 954.24 965.76 953.69
  Q 896.13 946.91 826.52 940.07
  C 824.68 939.88 821.28 939.90 818.87 939.23
  Z"
/>
</svg>
