<?xml version="1.0" encoding="UTF-8" standalone="no"?>
<!DOCTYPE svg PUBLIC "-//W3C//DTD SVG 1.1//EN" "http://www.w3.org/Graphics/SVG/1.1/DTD/svg11.dtd">
<svg xmlns="http://www.w3.org/2000/svg" version="1.1" viewBox="0.00 0.00 1931.00 1086.00">
<path fill="#41bbd7" d="
  M 369.77 752.46
  Q 339.45 741.12 311.62 724.44
  Q 289.19 710.99 271.16 692.10
  C 252.96 673.04 240.53 644.53 245.30 618.01
  Q 246.90 609.14 250.60 599.80
  Q 253.81 591.69 258.54 582.63
  Q 270.45 559.86 288.95 543.68
  Q 311.68 523.82 341.82 518.75
  C 358.97 515.87 379.24 517.06 395.96 520.73
  Q 399.57 521.52 411.01 524.62
  Q 418.31 526.60 425.76 529.45
  Q 459.44 542.35 493.30 554.73
  Q 493.89 554.94 493.66 555.52
  L 482.56 583.32
  Q 482.34 583.87 481.76 583.76
  Q 468.24 581.00 454.76 578.29
  Q 453.35 578.01 451.89 579.18
  Q 423.93 601.49 408.78 635.51
  Q 398.95 657.59 394.83 678.47
  Q 389.15 707.21 390.08 737.08
  A 1.17 1.16 -83.7 0 0 390.94 738.17
  Q 399.95 740.53 409.24 742.78
  Q 409.28 742.79 412.81 743.78
  Q 414.98 744.39 416.77 744.45
  Q 418.63 744.51 417.92 746.26
  L 410.04 765.77
  Q 409.92 766.06 409.63 765.98
  Q 398.96 762.98 388.56 759.30
  Q 379.69 756.16 369.77 752.46
  Z"
/>
</svg>
