<?xml version="1.0" encoding="UTF-8" standalone="no"?>
<!DOCTYPE svg PUBLIC "-//W3C//DTD SVG 1.1//EN" "http://www.w3.org/Graphics/SVG/1.1/DTD/svg11.dtd">
<svg xmlns="http://www.w3.org/2000/svg" version="1.1" viewBox="0.00 0.00 1931.00 1086.00">
<path fill="#63b850" d="
  M 654.03 535.89
  Q 650.85 538.01 647.00 540.06
  Q 631.73 548.20 616.64 556.68
  Q 598.77 566.71 580.65 576.29
  Q 580.22 576.52 579.39 577.30
  Q 578.58 578.06 577.73 577.79
  Q 549.85 568.87 503.36 551.74
  Q 502.76 551.52 503.00 550.92
  L 505.24 545.40
  Q 505.47 544.84 506.04 544.63
  L 710.75 470.57
  Q 712.02 470.11 712.02 471.48
  L 712.03 513.76
  A 1.66 1.63 72.2 0 1 711.36 515.09
  Q 695.02 527.29 680.36 541.83
  C 677.96 544.21 675.67 547.69 672.66 550.22
  Q 672.37 550.47 672.10 550.21
  L 657.04 536.14
  A 2.45 2.44 49.7 0 0 654.03 535.89
  Z"
/>
</svg>
