<?xml version="1.0" encoding="UTF-8" standalone="no"?>
<!DOCTYPE svg PUBLIC "-//W3C//DTD SVG 1.1//EN" "http://www.w3.org/Graphics/SVG/1.1/DTD/svg11.dtd">
<svg xmlns="http://www.w3.org/2000/svg" version="1.1" viewBox="0.00 0.00 1931.00 1086.00">
<path fill="#75519d" d="
  M 1268.62 698.03
  Q 1269.55 697.44 1270.65 697.62
  Q 1271.15 697.69 1271.57 697.40
  C 1272.70 696.60 1273.67 696.99 1274.78 696.70
  Q 1278.89 695.63 1283.03 694.75
  C 1288.91 693.50 1294.68 691.79 1300.58 690.55
  A 0.74 0.73 -21.7 0 1 1301.36 690.88
  Q 1321.47 723.56 1332.82 739.69
  Q 1362.75 782.19 1392.51 824.81
  Q 1394.46 827.60 1396.97 831.72
  A 0.58 0.57 -14.8 0 1 1396.46 832.59
  L 1394.90 832.53
  A 1.12 1.11 24.4 0 0 1394.09 832.83
  C 1393.31 833.55 1392.50 833.35 1391.62 833.66
  Q 1389.00 834.62 1386.38 835.51
  Q 1385.90 835.67 1385.41 835.57
  Q 1384.65 835.40 1384.22 836.01
  Q 1383.91 836.44 1383.40 836.33
  Q 1382.56 836.14 1381.92 836.64
  Q 1381.52 836.97 1381.00 837.03
  C 1379.02 837.26 1376.76 838.20 1375.33 838.57
  Q 1356.89 843.34 1338.26 847.32
  Q 1300.18 855.46 1261.49 861.73
  A 0.71 0.71 0.0 0 1 1260.72 861.31
  Q 1255.20 849.01 1249.69 836.53
  Q 1244.93 825.75 1240.25 814.93
  Q 1234.97 802.73 1232.27 797.24
  Q 1231.80 796.29 1231.70 795.61
  Q 1231.64 795.14 1231.39 794.73
  Q 1229.54 791.66 1228.20 788.38
  Q 1224.53 779.42 1220.67 770.54
  C 1213.32 753.60 1202.29 733.46 1194.51 712.46
  Q 1194.33 711.98 1194.84 711.98
  C 1196.30 711.97 1197.15 712.07 1198.63 711.55
  C 1199.91 711.11 1202.17 711.54 1203.00 710.92
  Q 1203.30 710.68 1203.69 710.63
  C 1222.89 707.70 1241.98 703.71 1261.01 699.78
  C 1262.07 699.56 1263.03 698.86 1264.56 699.16
  A 1.14 1.13 30.9 0 0 1265.49 698.93
  Q 1266.37 698.22 1267.53 698.30
  Q 1268.12 698.35 1268.62 698.03
  Z"
/>
<path fill="#75519d" d="
  M 1280.83 905.89
  Q 1272.01 887.10 1263.62 868.10
  Q 1263.42 867.64 1263.89 867.51
  Q 1266.84 866.65 1269.88 866.14
  Q 1321.99 857.45 1373.31 844.90
  C 1374.40 844.63 1375.56 843.83 1377.05 843.96
  Q 1377.58 844.01 1377.97 843.65
  Q 1378.68 842.99 1379.73 843.20
  Q 1380.29 843.32 1380.79 843.05
  Q 1380.99 842.94 1381.14 842.76
  A 0.82 0.81 13.3 0 1 1381.60 842.48
  Q 1387.21 841.28 1392.64 839.48
  Q 1392.66 839.47 1393.38 839.36
  Q 1393.80 839.29 1394.08 838.94
  Q 1394.36 838.58 1394.81 838.62
  L 1395.48 838.66
  Q 1395.94 838.69 1396.38 838.53
  L 1400.33 837.09
  Q 1400.67 836.96 1400.92 837.40
  L 1429.50 885.83
  Q 1430.15 886.92 1428.93 887.27
  Q 1409.10 892.82 1391.55 897.65
  Q 1341.54 911.41 1316.38 918.13
  Q 1309.41 919.99 1307.08 920.71
  C 1306.54 920.88 1306.00 920.65 1305.55 920.87
  Q 1303.22 922.03 1300.66 922.36
  Q 1300.17 922.42 1299.75 922.68
  C 1298.90 923.21 1298.05 922.95 1297.18 923.26
  C 1295.78 923.75 1294.60 924.25 1293.04 924.53
  Q 1291.55 924.80 1290.16 925.49
  Q 1289.59 925.78 1289.32 925.19
  L 1280.87 906.40
  Q 1280.82 906.27 1280.85 906.14
  Q 1280.88 906.00 1280.83 905.89
  Z"
/>
</svg>
