<?xml version="1.0" encoding="UTF-8" standalone="no"?>
<!DOCTYPE svg PUBLIC "-//W3C//DTD SVG 1.1//EN" "http://www.w3.org/Graphics/SVG/1.1/DTD/svg11.dtd">
<svg xmlns="http://www.w3.org/2000/svg" version="1.1" viewBox="0.00 0.00 1931.00 1086.00">
<path fill="#74519d" d="
  M 1174.81 810.56
  Q 1176.05 814.18 1177.30 817.79
  Q 1186.60 844.66 1195.87 870.12
  Q 1196.58 872.07 1194.52 872.24
  Q 1140.65 876.91 1087.75 879.05
  Q 1069.54 879.78 1051.32 880.65
  Q 1050.83 880.67 1050.80 880.18
  Q 1047.80 832.93 1045.48 785.66
  C 1045.36 783.04 1044.67 777.56 1044.65 773.45
  Q 1044.65 770.83 1044.22 768.61
  Q 1043.00 762.33 1042.26 755.97
  Q 1042.04 754.13 1042.56 751.06
  C 1043.35 746.36 1041.53 742.94 1041.50 738.66
  Q 1041.46 731.56 1041.09 724.47
  Q 1041.06 723.91 1041.62 723.92
  Q 1080.32 724.57 1101.25 722.94
  Q 1124.40 721.15 1147.59 718.73
  Q 1148.04 718.68 1148.11 719.13
  Q 1151.19 738.48 1156.54 757.41
  Q 1158.60 764.73 1162.80 776.39
  Q 1168.94 793.43 1174.81 810.56
  Z"
/>
<path fill="#74519d" d="
  M 1198.43 878.28
  L 1216.71 939.77
  Q 1216.91 940.42 1216.23 940.48
  L 1058.30 954.72
  A 0.85 0.85 0.0 0 1 1057.37 953.95
  L 1051.14 887.14
  Q 1051.08 886.44 1051.78 886.40
  Q 1090.30 884.32 1128.74 882.51
  Q 1162.88 880.90 1190.01 878.29
  Q 1194.99 877.82 1197.81 877.83
  Q 1198.30 877.83 1198.43 878.28
  Z"
/>
</svg>
