<svg version="1.2" xmlns="http://www.w3.org/2000/svg" viewBox="0 0 1931 1086">
	<title>informatica-svg</title>
	<style>
		.s0 { fill: #75519d } 
		.s1 { paint-order:stroke fill markers;stroke: #000000;stroke-width: 4;stroke-linejoin: round;;fill: #ffffff } 
	</style>
	<path id="Layer" class="s0" d="m1268.6 698q1-0.6 2.1-0.4 0.5 0.1 0.9-0.2c1.1-0.8 2.1-0.4 3.2-0.7q4.1-1.1 8.2-1.9c5.9-1.3 11.7-3 17.6-4.3q0.1 0 0.2 0 0.1 0 0.2 0.1 0.1 0 0.2 0.1 0.1 0.1 0.2 0.2 20.1 32.7 31.4 48.8 30 42.5 59.7 85.1 2 2.8 4.5 6.9 0.1 0.2 0.1 0.3 0 0.2-0.1 0.3-0.1 0.1-0.2 0.2-0.2 0.1-0.3 0.1l-1.6-0.1q-0.1 0-0.2 0-0.1 0.1-0.2 0.1-0.1 0-0.2 0.1-0.1 0.1-0.2 0.1c-0.8 0.7-1.6 0.6-2.5 0.9q-2.6 0.9-5.2 1.8-0.5 0.2-1 0.1-0.7-0.2-1.2 0.4-0.3 0.4-0.8 0.3-0.8-0.2-1.5 0.3-0.4 0.4-0.9 0.4c-2 0.3-4.2 1.2-5.7 1.6q-18.4 4.7-37 8.7-38.1 8.2-76.8 14.4-0.1 0-0.2 0-0.2 0-0.3 0-0.1-0.1-0.2-0.2 0-0.1-0.1-0.2-5.5-12.3-11-24.8-4.8-10.7-9.4-21.6-5.3-12.2-8-17.7-0.5-0.9-0.6-1.6-0.1-0.5-0.3-0.9-1.9-3-3.2-6.3-3.7-9-7.5-17.9c-7.4-16.9-18.4-37-26.2-58q-0.2-0.5 0.3-0.5c1.5 0 2.4 0.1 3.8-0.5 1.3-0.4 3.6 0 4.4-0.6q0.3-0.2 0.7-0.3c19.2-2.9 38.3-6.9 57.3-10.8 1.1-0.2 2-0.9 3.6-0.6q0.1 0 0.2 0 0.1 0 0.3-0.1 0.1 0 0.2 0 0.1-0.1 0.2-0.2 0.9-0.7 2-0.6 0.6 0.1 1.1-0.3z"/>
	<path id="Layer" class="s0" d="m1280.8 905.9q-8.8-18.8-17.2-37.8-0.2-0.5 0.3-0.6 2.9-0.8 6-1.4 52.1-8.6 103.4-21.2c1.1-0.3 2.3-1.1 3.7-0.9q0.6 0 1-0.4 0.7-0.6 1.7-0.4 0.6 0.1 1.1-0.2 0.2-0.1 0.3-0.2 0.1-0.1 0.1-0.1 0.1-0.1 0.1-0.1 0.1-0.1 0.2-0.1 0 0 0.1 0 5.6-1.2 11-3 0.1 0 0.8-0.1 0.4-0.1 0.7-0.5 0.3-0.3 0.7-0.3l0.7 0.1q0.4 0 0.9-0.2l3.9-1.4q0.4-0.1 0.6 0.3l28.6 48.4q0.6 1.1-0.6 1.5-19.8 5.5-37.4 10.3-50 13.8-75.1 20.5-7 1.9-9.3 2.6c-0.6 0.2-1.1-0.1-1.6 0.2q-2.3 1.1-4.8 1.5-0.5 0-0.9 0.3c-0.9 0.5-1.8 0.3-2.6 0.6-1.4 0.5-2.6 1-4.2 1.2q-1.5 0.3-2.8 1-0.6 0.3-0.9-0.3l-8.4-18.8q-0.1-0.1-0.1-0.3 0.1-0.1 0-0.2z"/>
	<path id="Maker" class="s1" aria-label="Maker"  d="m1202.1 800v-45.2h9.1l11.5 30.8 11.6-30.8h9.1v45.2h-5.9v-39.7l-11.7 31h-6.1l-11.7-31v39.7zm74.2-17h-5.5q-6.8 0-9.4 1.5-2.6 1.5-2.6 5.3 0 2.9 2 4.7 1.9 1.7 5.3 1.7 4.6 0 7.4-3.3 2.8-3.3 2.8-8.7zm5.6-2.3v19.3h-5.6v-5.1q-1.9 3.1-4.7 4.6-2.9 1.4-7 1.4-5.2 0-8.3-2.9-3-2.9-3-7.8 0-5.7 3.8-8.7 3.8-2.9 11.4-2.9h7.8v-0.5q0-3.9-2.5-5.9-2.5-2.2-7.1-2.2-2.9 0-5.7 0.7-2.7 0.7-5.3 2.1v-5.1q3.1-1.2 6-1.8 2.8-0.6 5.6-0.6 7.3 0 11 3.8 3.6 3.8 3.6 11.6zm11.3 19.3v-47.1h5.6v27.9l16.6-14.7h7.1l-18 15.9 18.7 18h-7.2l-17.2-16.5v16.5zm62.9-18.3v2.7h-25.7q0.4 5.8 3.5 8.8 3.1 3 8.7 3 3.2 0 6.2-0.8 3-0.8 6-2.4v5.3q-3 1.3-6.2 2-3.1 0.6-6.4 0.6-8.1 0-12.8-4.7-4.8-4.7-4.8-12.8 0-8.3 4.5-13.2 4.5-4.9 12.2-4.9 6.8 0 10.8 4.4 4 4.4 4 12zm-25.5-1.6h19.9q-0.1-4.6-2.6-7.3-2.5-2.8-6.6-2.8-4.6 0-7.5 2.7-2.7 2.6-3.2 7.4zm54.2-14.5v5.7q-0.9-0.5-2-0.7-1.1-0.3-2.4-0.3-4.8 0-7.3 3.1-2.5 3-2.5 8.8v17.8h-5.6v-33.9h5.6v5.3q1.7-3.1 4.6-4.6 2.8-1.5 6.8-1.5 0.6 0 1.3 0.1 0.7 0.1 1.5 0.2z"/>
</svg>