<?xml version="1.0" encoding="UTF-8" standalone="no"?>
<!DOCTYPE svg PUBLIC "-//W3C//DTD SVG 1.1//EN" "http://www.w3.org/Graphics/SVG/1.1/DTD/svg11.dtd">
<svg xmlns="http://www.w3.org/2000/svg" version="1.1" viewBox="0.00 0.00 1931.00 1086.00">
<path fill="#eb0086" d="
  M 662.26 454.24
  C 660.05 450.51 658.82 447.36 654.88 445.60
  Q 654.43 445.39 654.14 444.99
  Q 644.18 431.23 641.80 426.73
  Q 590.97 330.57 545.01 231.99
  Q 520.87 180.19 504.49 136.03
  Q 500.22 124.52 495.12 104.88
  C 494.54 102.63 493.23 97.92 495.33 95.45
  Q 504.32 84.88 509.76 79.76
  C 578.41 15.13 666.66 -5.10 758.73 15.30
  Q 760.43 15.68 763.78 19.49
  Q 826.09 90.44 870.34 172.93
  C 899.21 226.74 921.60 287.19 928.01 348.47
  Q 928.54 353.56 929.45 358.59
  A 1.09 1.08 -30.1 0 1 929.21 359.48
  C 913.84 377.73 896.00 392.29 875.19 403.71
  Q 868.64 407.30 859.27 410.68
  Q 772.34 442.03 685.44 473.46
  Q 685.40 473.48 680.81 475.26
  Q 676.22 477.04 670.95 478.23
  A 0.67 0.66 80.9 0 1 670.14 477.64
  Q 670.00 476.07 670.86 474.52
  A 1.99 0.25 -63.7 0 1 671.48 473.58
  L 674.10 470.82
  A 0.44 0.44 0.0 0 0 674.03 470.16
  L 671.63 468.52
  Q 671.37 468.34 671.37 468.03
  L 671.37 467.68
  Q 671.37 467.13 670.95 466.76
  Q 666.06 462.51 662.61 457.08
  Q 662.54 456.97 661.59 455.93
  Q 660.85 455.11 661.20 453.80
  Q 661.43 452.97 661.51 453.83
  L 661.68 455.54
  Q 661.73 456.02 662.08 455.69
  Q 662.76 455.08 662.26 454.24
  Z"
/>
</svg>
